<svg width="210" height="66" viewBox="0 0 210 66" fill="none" xmlns="http://www.w3.org/2000/svg">
    <path
        d="M63.92 34.704C63.056 34.704 62.4 34.688 61.952 34.656C60.576 40.672 59.808 44.848 59.648 47.184C58.272 47.856 56.176 48.192 53.36 48.192C52.752 48.192 52.336 48.176 52.112 48.144C52.336 46.256 53.296 41.52 54.992 33.936C56.688 26.32 57.536 21.52 57.536 19.536C57.536 19.152 57.312 18.656 56.864 18.048C56.448 17.408 56.016 16.88 55.568 16.464L54.944 15.84L55.088 15.12C60.464 14.32 64.816 13.92 68.144 13.92C74.736 13.92 78.032 16.608 78.032 21.984C78.032 25.568 76.848 28.592 74.48 31.056C72.112 33.488 68.592 34.704 63.92 34.704ZM63.152 31.488C65.616 31.488 67.472 30.56 68.72 28.704C70 26.848 70.64 24.368 70.64 21.264C70.64 19.984 70.4 18.944 69.92 18.144C69.44 17.312 68.736 16.896 67.808 16.896C67.2 16.896 66.448 17.008 65.552 17.232C65.04 20.592 64.08 25.344 62.672 31.488H63.152ZM78.6031 48.144H78.2671C78.2031 47.888 78.1711 47.312 78.1711 46.416C78.1711 45.488 78.6031 43.024 79.4671 39.024C80.3311 35.024 80.7631 32.736 80.7631 32.16C80.7631 31.168 80.3151 30.08 79.4191 28.896L78.9871 28.32L79.0351 27.696C80.7631 27.216 83.5311 26.976 87.3391 26.976C87.7231 27.808 87.9151 28.976 87.9151 30.48C88.2671 29.904 89.0031 29.136 90.1231 28.176C91.2431 27.216 92.3951 26.736 93.5791 26.736C95.3071 26.736 96.1711 28.24 96.1711 31.248C96.0111 31.44 95.7871 31.696 95.4991 32.016C95.2431 32.304 94.6991 32.72 93.8671 33.264C93.0671 33.808 92.2831 34.144 91.5151 34.272C91.4831 34.272 91.2111 33.84 90.6991 32.976C90.1871 32.112 89.8031 31.68 89.5471 31.68C88.7471 31.968 88.0431 32.448 87.4351 33.12C85.9631 39.744 85.2271 44.032 85.2271 45.984C85.2271 46.688 85.2431 47.184 85.2751 47.472C84.1551 47.92 81.9311 48.144 78.6031 48.144ZM101.848 48.576C99.6395 48.576 97.9115 47.808 96.6635 46.272C95.4155 44.704 94.7915 42.528 94.7915 39.744C94.7915 36.192 95.7355 33.136 97.6235 30.576C99.5435 28.016 102.184 26.736 105.544 26.736L107.272 26.832C107.816 26.544 108.424 26.4 109.096 26.4C111.624 26.4 112.888 28.784 112.888 33.552C114.2 33.488 115.528 33.312 116.872 33.024L117.64 32.832L117.927 34.704C116.872 35.152 115.448 35.552 113.656 35.904L112.696 36.096C112.088 39.456 110.856 42.384 109 44.88C107.144 47.344 104.76 48.576 101.848 48.576ZM104.44 44.448C105.784 44.448 106.984 43.584 108.04 41.856C109.128 40.128 109.88 38.304 110.296 36.384C106.872 36.384 105.16 35.104 105.16 32.544C105.16 31.52 105.368 30.56 105.784 29.664L106.023 29.184C105.896 29.12 105.736 29.088 105.544 29.088C105.352 29.088 105.208 29.12 105.112 29.184C104.312 29.696 103.56 30.896 102.856 32.784C102.152 34.672 101.8 36.832 101.8 39.264C101.8 42.72 102.68 44.448 104.44 44.448ZM113.376 58.752C113.216 58.368 113.136 57.52 113.136 56.208C113.136 54.896 113.76 51.376 115.008 45.648C116.256 39.888 116.88 35.456 116.88 32.352C116.88 31.744 116.736 31.104 116.448 30.432C116.16 29.728 115.856 29.184 115.536 28.8L115.104 28.272L115.152 27.648C116.656 27.168 119.312 26.928 123.12 26.928C123.472 27.6 123.696 28.544 123.792 29.76C126.256 27.744 128.304 26.736 129.936 26.736C131.6 26.736 132.928 27.424 133.92 28.8C134.944 30.176 135.456 32.192 135.456 34.848C135.456 39.488 134.608 42.944 132.912 45.216C131.216 47.456 129.072 48.576 126.48 48.576C125.136 48.576 124.016 48.384 123.12 48L122.64 47.808L122.976 45.936C123.264 46 123.6 46.032 123.984 46.032C124.816 46.032 125.536 45.648 126.144 44.88C126.784 44.112 127.264 43.136 127.584 41.952C128.224 39.584 128.544 37.392 128.544 35.376C128.544 32.496 127.952 31.056 126.768 31.056C125.84 31.056 124.848 31.424 123.792 32.16C123.664 34.4 123.008 38.32 121.824 43.92C120.64 49.52 120.048 54.032 120.048 57.456C118.32 58.16 116.096 58.592 113.376 58.752ZM144.363 48.576C142.155 48.576 140.427 47.808 139.179 46.272C137.931 44.704 137.307 42.528 137.307 39.744C137.307 36.192 138.251 33.136 140.139 30.576C142.059 28.016 144.699 26.736 148.059 26.736L149.787 26.832C150.331 26.544 150.939 26.4 151.611 26.4C154.139 26.4 155.403 28.784 155.403 33.552C156.715 33.488 158.043 33.312 159.387 33.024L160.155 32.832L160.443 34.704C159.387 35.152 157.963 35.552 156.171 35.904L155.211 36.096C154.603 39.456 153.371 42.384 151.515 44.88C149.659 47.344 147.275 48.576 144.363 48.576ZM146.955 44.448C148.299 44.448 149.499 43.584 150.555 41.856C151.643 40.128 152.395 38.304 152.811 36.384C149.387 36.384 147.675 35.104 147.675 32.544C147.675 31.52 147.883 30.56 148.299 29.664L148.539 29.184C148.411 29.12 148.251 29.088 148.059 29.088C147.867 29.088 147.723 29.12 147.627 29.184C146.827 29.696 146.075 30.896 145.371 32.784C144.667 34.672 144.315 36.832 144.315 39.264C144.315 42.72 145.195 44.448 146.955 44.448ZM171.881 41.712C171.881 43.728 170.985 45.376 169.193 46.656C167.433 47.936 165.417 48.576 163.145 48.576C160.873 48.576 159.065 48.096 157.721 47.136C156.409 46.176 155.753 45.328 155.753 44.592C155.753 44.144 156.313 43.424 157.433 42.432C158.553 41.408 159.497 40.784 160.265 40.56C161.865 41.744 163.177 43.616 164.201 46.176C165.385 46.08 165.977 45.52 165.977 44.496C165.977 43.024 164.681 40.944 162.089 38.256C159.497 35.536 158.201 33.376 158.201 31.776C158.201 30.176 158.921 28.944 160.361 28.08C161.801 27.184 163.529 26.736 165.545 26.736C167.593 26.736 169.129 27.104 170.153 27.84C171.177 28.544 171.689 29.52 171.689 30.768C171.689 31.984 170.713 33.68 168.761 35.856C168.985 36.08 169.273 36.384 169.625 36.768C169.977 37.12 170.441 37.808 171.017 38.832C171.593 39.856 171.881 40.816 171.881 41.712ZM167.273 34.176C168.617 33.024 169.289 31.888 169.289 30.768C169.289 29.648 168.521 29.088 166.985 29.088C166.249 29.088 165.641 29.248 165.161 29.568C164.681 29.856 164.441 30.192 164.441 30.576C164.441 31.28 165.145 32.272 166.553 33.552L167.273 34.176ZM188.416 28.128C188.48 28.064 188.656 27.648 188.944 26.88C190.448 26.88 192.464 27.328 194.992 28.224C194.192 30.88 193.552 33.664 193.072 36.576C192.592 39.456 192.352 41.52 192.352 42.768C192.352 43.984 192.48 44.592 192.736 44.592C192.928 44.592 193.632 44.288 194.848 43.68L195.424 43.392L196.288 45.072C196 45.328 195.616 45.648 195.136 46.032C194.688 46.416 193.824 46.944 192.544 47.616C191.264 48.256 190.112 48.576 189.088 48.576C187.104 48.576 185.952 47.68 185.632 45.888C183.584 47.68 181.728 48.576 180.064 48.576C178.432 48.576 177.04 47.936 175.888 46.656C174.768 45.376 174.208 43.36 174.208 40.608C174.208 36.32 175.088 32.944 176.848 30.48C178.608 27.984 180.736 26.736 183.232 26.736C185.024 26.736 186.752 27.2 188.416 28.128ZM182.944 44.496C183.712 44.496 184.576 44.192 185.536 43.584C185.76 39.072 186.512 34.608 187.792 30.192C186.832 29.776 186.016 29.568 185.344 29.568C184.192 29.568 183.2 30.704 182.368 32.976C181.568 35.216 181.168 37.696 181.168 40.416C181.168 43.136 181.76 44.496 182.944 44.496ZM200.87 48.576C199.782 48.576 198.87 48.208 198.134 47.472C197.43 46.736 197.078 45.712 197.078 44.4C197.078 43.056 197.862 38.816 199.43 31.68C201.03 24.512 201.83 19.344 201.83 16.176L201.542 14.064C204.038 13.2 206.374 12.768 208.55 12.768C208.87 13.216 209.03 14 209.03 15.12C209.03 17.68 208.214 22.64 206.582 30C204.982 37.328 204.182 41.6 204.182 42.816C204.182 44 204.326 44.592 204.614 44.592L207.974 43.392L208.838 45.072C207.75 45.936 206.422 46.736 204.854 47.472C203.318 48.208 201.99 48.576 200.87 48.576Z"
        fill="#FC136B" />
    <path
        d="M5 13C3.67392 13 2.40215 13.5268 1.46447 14.4645C0.526784 15.4021 0 16.6739 0 18L0 49.9825C5.25372e-05 50.2298 0.0734815 50.4716 0.210993 50.6772C0.348505 50.8828 0.543917 51.043 0.772498 51.1374C1.00108 51.2319 1.25255 51.2565 1.49509 51.208C1.73763 51.1595 1.96033 51.0401 2.135 50.865L9.2675 43.7325C9.73623 43.2636 10.372 43.0001 11.035 43H35C36.3261 43 37.5979 42.4732 38.5355 41.5355C39.4732 40.5979 40 39.3261 40 38V18C40 16.6739 39.4732 15.4021 38.5355 14.4645C37.5979 13.5268 36.3261 13 35 13H5ZM20 22.9825C24.16 18.705 34.5625 26.19 20 35.8125C5.4375 26.1875 15.84 18.705 20 22.9825Z"
        fill="#FC136B" />
</svg>